<svg xmlns="http://www.w3.org/2000/svg" xmlns:xlink="http://www.w3.org/1999/xlink" width="420" zoomAndPan="magnify" viewBox="0 0 315 83.249999" height="111" preserveAspectRatio="xMidYMid meet" version="1.0"><defs><g/><clipPath id="64586521a7"><path d="M 1.40625 0 L 313.59375 0 L 313.59375 82.507812 L 1.40625 82.507812 Z M 1.40625 0 " clip-rule="nonzero"/></clipPath><clipPath id="c01002a0fd"><path d="M 12.460938 5.160156 L 76 5.160156 L 76 74.289062 L 12.460938 74.289062 Z M 12.460938 5.160156 " clip-rule="nonzero"/></clipPath><clipPath id="cfe466820d"><path d="M 12.460938 6 L 76.382812 6 L 76.382812 73 L 12.460938 73 Z M 12.460938 6 " clip-rule="nonzero"/></clipPath></defs><g clip-path="url(#64586521a7)"><path fill="#ffffff" d="M 1.40625 0 L 313.59375 0 L 313.59375 172.445312 L 1.40625 172.445312 Z M 1.40625 0 " fill-opacity="1" fill-rule="nonzero"/><path fill="#ffffff" d="M 1.40625 0 L 313.59375 0 L 313.59375 82.507812 L 1.40625 82.507812 Z M 1.40625 0 " fill-opacity="1" fill-rule="nonzero"/><path fill="#ffffff" d="M 1.40625 0 L 313.59375 0 L 313.59375 82.507812 L 1.40625 82.507812 Z M 1.40625 0 " fill-opacity="1" fill-rule="nonzero"/></g><g clip-path="url(#c01002a0fd)"><path fill="#3b38eb" d="M 42.929688 20.367188 C 43.046875 20.367188 43.144531 20.367188 43.242188 20.386719 C 43.957031 18.320312 44.75 16.335938 45.621094 14.429688 C 46.589844 12.285156 47.636719 10.261719 48.738281 8.335938 C 48.699219 8.296875 48.679688 8.277344 48.640625 8.238281 L 35.417969 18.164062 C 35.535156 18.398438 35.59375 18.671875 35.59375 18.964844 C 35.59375 19.042969 35.59375 19.101562 35.574219 19.179688 L 41.304688 21.359375 C 41.613281 20.753906 42.234375 20.367188 42.929688 20.367188 M 34.453125 25.933594 C 34.585938 25.5625 34.859375 25.230469 35.1875 25.019531 L 33.773438 20.773438 C 32.769531 20.773438 31.972656 19.957031 31.972656 18.945312 C 31.972656 18.90625 31.972656 18.847656 31.972656 18.808594 L 25.566406 16.355469 C 25.449219 16.511719 25.296875 16.667969 25.140625 16.785156 L 27.617188 23.890625 C 27.65625 23.890625 27.695312 23.890625 27.734375 23.890625 C 28.664062 23.890625 29.417969 24.570312 29.535156 25.464844 Z M 36.15625 24.726562 C 36.523438 24.726562 36.871094 24.84375 37.160156 25.039062 C 37.761719 24.550781 38.402344 24.101562 39.078125 23.714844 C 39.738281 23.324219 40.433594 22.972656 41.167969 22.664062 C 41.128906 22.546875 41.109375 22.429688 41.109375 22.292969 L 35.226562 20.054688 C 35.089844 20.25 34.917969 20.40625 34.703125 20.519531 L 36.117188 24.746094 Z M 15.132812 30.078125 C 15.382812 30.214844 15.617188 30.410156 15.789062 30.644531 L 25.953125 26.109375 C 25.933594 25.972656 25.914062 25.855469 25.914062 25.71875 C 25.914062 25.097656 26.222656 24.550781 26.6875 24.21875 L 24.210938 17.113281 C 24.171875 17.113281 24.132812 17.113281 24.09375 17.113281 C 23.746094 17.113281 23.398438 17.015625 23.128906 16.824219 C 21.230469 18.652344 19.605469 20.714844 18.210938 23.03125 C 16.894531 25.25 15.867188 27.589844 15.132812 30.078125 Z M 16.273438 51.921875 C 16.5625 51.921875 16.835938 51.980469 17.066406 52.097656 L 24.617188 43.453125 C 24.425781 43.160156 24.328125 42.832031 24.328125 42.441406 C 24.328125 42.128906 24.40625 41.835938 24.539062 41.585938 L 15.171875 33.332031 C 14.917969 33.46875 14.628906 33.542969 14.339844 33.542969 C 13.988281 35.511719 13.816406 37.574219 13.816406 39.714844 C 13.816406 42.832031 14.183594 45.769531 14.917969 48.554688 C 15.230469 49.722656 15.597656 50.851562 16.042969 51.960938 C 16.121094 51.921875 16.195312 51.921875 16.273438 51.921875 Z M 26.070312 52.71875 C 26.203125 52.15625 26.59375 51.6875 27.113281 51.453125 L 26.011719 44.269531 C 25.777344 44.25 25.546875 44.191406 25.351562 44.097656 L 17.804688 52.738281 C 17.878906 52.875 17.957031 53.011719 17.996094 53.167969 Z M 24.210938 63.601562 C 24.480469 63.386719 24.832031 63.25 25.199219 63.230469 L 27 54.746094 C 26.574219 54.53125 26.261719 54.140625 26.109375 53.691406 L 18.035156 54.140625 C 17.957031 54.511719 17.765625 54.859375 17.472656 55.113281 C 17.707031 55.542969 17.9375 55.972656 18.191406 56.378906 C 19.660156 58.832031 21.402344 61.011719 23.4375 62.921875 C 23.707031 63.132812 23.960938 63.367188 24.210938 63.601562 Z M 33.523438 61.636719 C 33.523438 61.558594 33.503906 61.5 33.503906 61.421875 C 33.503906 60.488281 34.199219 59.726562 35.089844 59.609375 L 35.496094 54.355469 C 35.03125 54.140625 34.664062 53.730469 34.511719 53.226562 L 29.59375 53.5 C 29.417969 54.296875 28.742188 54.898438 27.929688 54.9375 L 26.128906 63.425781 C 26.378906 63.5625 26.613281 63.757812 26.785156 64.011719 Z M 33.117188 69.148438 C 33.386719 68.664062 33.851562 68.3125 34.414062 68.234375 L 34.820312 63.191406 C 34.453125 63.078125 34.121094 62.863281 33.890625 62.550781 L 27.132812 64.945312 C 27.132812 64.984375 27.132812 65.023438 27.132812 65.0625 C 27.132812 65.316406 27.078125 65.546875 27 65.78125 C 28.0625 66.523438 29.207031 67.222656 30.386719 67.84375 C 31.277344 68.3125 32.1875 68.742188 33.117188 69.148438 Z M 41.847656 62.53125 C 42.058594 62.199219 42.390625 61.945312 42.757812 61.8125 C 42.410156 60.605469 42.078125 59.4375 41.789062 58.25 C 41.75 58.25 41.730469 58.25 41.691406 58.25 C 40.683594 58.25 39.871094 57.429688 39.871094 56.417969 C 39.871094 56.28125 39.890625 56.164062 39.910156 56.046875 C 39.777344 55.972656 39.621094 55.894531 39.484375 55.816406 C 38.671875 55.347656 37.917969 54.839844 37.199219 54.257812 C 36.988281 54.394531 36.734375 54.472656 36.464844 54.511719 L 36.058594 59.746094 C 36.679688 60.019531 37.105469 60.625 37.144531 61.34375 Z M 44.945312 71.875 C 45.117188 71.367188 45.503906 70.960938 46.007812 70.765625 C 45.234375 68.917969 44.519531 67.085938 43.898438 65.296875 C 43.726562 65.355469 43.550781 65.375 43.375 65.375 C 42.371094 65.375 41.554688 64.554688 41.554688 63.542969 L 41.554688 63.464844 L 36.929688 62.296875 C 36.699219 62.726562 36.289062 63.058594 35.808594 63.191406 L 35.402344 68.332031 C 36.078125 68.605469 36.542969 69.265625 36.542969 70.027344 C 36.542969 70.144531 36.523438 70.257812 36.503906 70.355469 C 37.125 70.550781 37.742188 70.707031 38.363281 70.863281 C 40.472656 71.386719 42.660156 71.71875 44.945312 71.875 Z M 31.257812 34.34375 C 31.277344 34.34375 31.316406 34.34375 31.335938 34.34375 C 31.507812 33.582031 31.742188 32.863281 31.992188 32.164062 C 32.632812 30.46875 33.503906 28.929688 34.625 27.550781 C 34.492188 27.355469 34.414062 27.121094 34.375 26.886719 L 29.398438 26.417969 C 29.265625 26.730469 29.050781 27.003906 28.761719 27.199219 Z M 29.980469 37.320312 C 29.726562 37.011719 29.574219 36.601562 29.574219 36.171875 C 29.574219 35.550781 29.882812 35.003906 30.347656 34.675781 L 27.851562 27.53125 C 27.8125 27.53125 27.773438 27.53125 27.734375 27.53125 C 27.210938 27.53125 26.746094 27.316406 26.417969 26.964844 L 16.136719 31.539062 C 16.136719 31.597656 16.136719 31.636719 16.136719 31.695312 C 16.136719 32.046875 16.042969 32.355469 15.886719 32.628906 L 25.21875 40.863281 C 25.488281 40.707031 25.816406 40.609375 26.148438 40.609375 C 26.4375 40.609375 26.707031 40.667969 26.941406 40.785156 Z M 30.792969 37.90625 L 30.753906 37.886719 L 27.65625 41.449219 C 27.851562 41.742188 27.949219 42.070312 27.949219 42.441406 C 27.949219 43.160156 27.539062 43.765625 26.960938 44.078125 L 28.0625 51.316406 C 28.761719 51.394531 29.339844 51.882812 29.554688 52.523438 L 34.511719 52.253906 C 34.546875 52.078125 34.625 51.921875 34.703125 51.785156 C 34.085938 51.007812 33.523438 50.167969 33.019531 49.253906 C 32.246094 47.851562 31.683594 46.355469 31.296875 44.757812 C 30.910156 43.160156 30.714844 41.488281 30.714844 39.695312 C 30.734375 39.09375 30.753906 38.488281 30.792969 37.90625 Z M 33.753906 11.214844 C 33.347656 11.078125 33 10.808594 32.769531 10.457031 C 31.992188 10.789062 31.21875 11.15625 30.464844 11.566406 C 28.78125 12.441406 27.210938 13.453125 25.761719 14.566406 C 25.855469 14.777344 25.914062 15.03125 25.914062 15.285156 C 25.914062 15.34375 25.914062 15.402344 25.914062 15.460938 L 32.304688 17.894531 C 32.59375 17.484375 33.039062 17.191406 33.5625 17.132812 Z M 36.097656 9.210938 C 36.117188 9.289062 36.117188 9.386719 36.117188 9.464844 C 36.117188 10.320312 35.515625 11.039062 34.722656 11.234375 L 34.527344 17.25 C 34.625 17.289062 34.703125 17.347656 34.800781 17.386719 L 48.101562 7.402344 C 43.800781 7.441406 39.792969 8.042969 36.097656 9.210938 Z M 58.515625 40.628906 L 74.175781 40.628906 L 74.175781 64.4375 C 70.59375 67.027344 66.472656 68.996094 61.824219 70.375 C 57.371094 71.699219 52.921875 72.382812 48.488281 72.441406 L 48.488281 72.460938 C 48.488281 73.472656 47.671875 74.289062 46.667969 74.289062 C 45.796875 74.289062 45.058594 73.667969 44.886719 72.847656 C 42.542969 72.691406 40.296875 72.34375 38.128906 71.816406 C 37.433594 71.640625 36.734375 71.445312 36.058594 71.253906 C 35.730469 71.621094 35.246094 71.855469 34.703125 71.855469 C 33.714844 71.855469 32.921875 71.078125 32.882812 70.105469 C 31.878906 69.675781 30.890625 69.207031 29.921875 68.703125 C 28.683594 68.039062 27.503906 67.320312 26.378906 66.542969 C 26.089844 66.753906 25.722656 66.890625 25.316406 66.890625 C 24.308594 66.890625 23.496094 66.074219 23.496094 65.0625 C 23.496094 64.828125 23.535156 64.59375 23.628906 64.378906 C 23.339844 64.128906 23.070312 63.875 22.796875 63.621094 C 20.707031 61.65625 18.90625 59.398438 17.398438 56.867188 C 17.125 56.417969 16.875 55.988281 16.640625 55.542969 C 16.527344 55.5625 16.410156 55.582031 16.292969 55.582031 C 15.285156 55.582031 14.472656 54.765625 14.472656 53.75 C 14.472656 53.167969 14.746094 52.660156 15.152344 52.332031 C 14.6875 51.183594 14.300781 49.996094 13.988281 48.789062 C 13.234375 45.925781 12.847656 42.890625 12.847656 39.714844 C 12.847656 37.496094 13.023438 35.355469 13.390625 33.292969 C 12.847656 32.980469 12.5 32.394531 12.5 31.714844 C 12.5 30.761719 13.234375 29.960938 14.183594 29.886719 C 14.9375 27.296875 16.003906 24.84375 17.398438 22.527344 C 18.828125 20.132812 20.53125 17.992188 22.488281 16.101562 C 22.371094 15.847656 22.292969 15.578125 22.292969 15.285156 C 22.292969 14.273438 23.109375 13.453125 24.113281 13.453125 C 24.5 13.453125 24.871094 13.570312 25.179688 13.804688 C 26.667969 12.65625 28.296875 11.625 30.039062 10.710938 C 30.851562 10.28125 31.664062 9.890625 32.496094 9.542969 L 32.496094 9.503906 C 32.496094 8.492188 33.308594 7.671875 34.316406 7.671875 C 34.878906 7.671875 35.382812 7.925781 35.730469 8.335938 C 39.601562 7.089844 43.761719 6.484375 48.234375 6.464844 C 48.449219 5.707031 49.144531 5.160156 49.976562 5.160156 C 50.984375 5.160156 51.796875 5.980469 51.796875 6.992188 C 51.796875 7.03125 51.796875 7.050781 51.796875 7.089844 C 56.230469 7.421875 60.316406 8.355469 63.992188 9.929688 C 68.640625 11.917969 72.53125 14.757812 75.628906 18.476562 L 64.359375 28.738281 C 60.121094 24.0625 55.050781 21.707031 49.144531 21.707031 C 47.597656 21.707031 46.144531 21.84375 44.769531 22.117188 C 44.769531 22.136719 44.769531 22.175781 44.769531 22.195312 C 44.769531 23.207031 43.957031 24.027344 42.949219 24.027344 C 42.464844 24.027344 42.019531 23.832031 41.691406 23.519531 C 40.957031 23.8125 40.257812 24.160156 39.582031 24.550781 C 38.960938 24.921875 38.382812 25.328125 37.820312 25.777344 C 37.9375 26.011719 37.996094 26.285156 37.996094 26.554688 C 37.996094 27.570312 37.179688 28.386719 36.175781 28.386719 C 35.882812 28.386719 35.613281 28.328125 35.382812 28.191406 C 34.335938 29.476562 33.523438 30.917969 32.921875 32.492188 C 32.671875 33.15625 32.457031 33.855469 32.285156 34.558594 C 32.84375 34.867188 33.210938 35.472656 33.210938 36.152344 C 33.210938 37.03125 32.59375 37.769531 31.78125 37.945312 C 31.742188 38.507812 31.722656 39.09375 31.722656 39.675781 C 31.722656 41.390625 31.898438 42.984375 32.265625 44.503906 C 32.632812 46.003906 33.175781 47.425781 33.890625 48.769531 C 34.335938 49.605469 34.859375 50.363281 35.417969 51.085938 C 35.671875 50.949219 35.960938 50.871094 36.289062 50.871094 C 37.296875 50.871094 38.109375 51.6875 38.109375 52.699219 C 38.109375 53.011719 38.03125 53.304688 37.898438 53.558594 C 38.535156 54.0625 39.234375 54.550781 39.96875 54.957031 C 40.105469 55.035156 40.222656 55.09375 40.355469 55.171875 C 40.683594 54.800781 41.167969 54.589844 41.691406 54.589844 C 42.699219 54.589844 43.511719 55.40625 43.511719 56.417969 C 43.511719 56.59375 43.492188 56.769531 43.433594 56.945312 C 45.136719 57.429688 46.976562 57.683594 48.953125 57.683594 C 52.359375 57.683594 55.554688 57.003906 58.535156 55.621094 L 58.535156 40.628906 Z M 58.515625 40.628906 " fill-opacity="1" fill-rule="evenodd"/></g><g clip-path="url(#cfe466820d)"><path fill="#3b38eb" d="M 73.691406 41.117188 L 59 41.117188 L 59 55.933594 L 58.707031 56.066406 C 57.179688 56.769531 55.609375 57.292969 53.964844 57.644531 C 52.339844 57.996094 50.65625 58.171875 48.914062 58.171875 C 47.152344 58.171875 45.46875 57.976562 43.898438 57.585938 C 42.3125 57.195312 40.839844 56.59375 39.464844 55.816406 C 38.089844 55.035156 36.851562 54.082031 35.789062 52.992188 C 34.703125 51.902344 33.792969 50.636719 33.019531 49.234375 C 32.246094 47.832031 31.683594 46.335938 31.296875 44.738281 C 30.910156 43.140625 30.714844 41.46875 30.714844 39.675781 C 30.714844 36.894531 31.140625 34.382812 31.972656 32.144531 C 32.824219 29.886719 34.085938 27.917969 35.769531 26.246094 C 37.453125 24.550781 39.40625 23.304688 41.652344 22.449219 C 43.878906 21.613281 46.359375 21.183594 49.085938 21.183594 C 52.105469 21.183594 54.914062 21.785156 57.527344 22.972656 C 59.984375 24.101562 62.269531 25.777344 64.339844 27.996094 L 74.910156 18.378906 C 73.460938 16.6875 71.851562 15.207031 70.070312 13.882812 C 68.15625 12.480469 66.066406 11.292969 63.78125 10.320312 C 61.496094 9.347656 59.039062 8.609375 56.441406 8.121094 C 53.847656 7.632812 51.101562 7.382812 48.214844 7.382812 C 44.90625 7.382812 41.769531 7.730469 38.808594 8.414062 C 35.84375 9.09375 33.058594 10.125 30.445312 11.507812 C 27.832031 12.890625 25.507812 14.527344 23.457031 16.433594 C 21.421875 18.339844 19.660156 20.519531 18.191406 22.972656 C 16.71875 25.425781 15.617188 28.035156 14.878906 30.820312 C 14.144531 33.601562 13.777344 36.542969 13.777344 39.65625 C 13.777344 42.773438 14.144531 45.710938 14.878906 48.496094 C 15.617188 51.257812 16.71875 53.886719 18.191406 56.339844 C 19.660156 58.792969 21.402344 60.972656 23.4375 62.882812 C 25.46875 64.789062 27.773438 66.445312 30.347656 67.808594 C 35.515625 70.550781 41.363281 71.933594 47.847656 71.933594 C 50.152344 71.933594 52.457031 71.757812 54.757812 71.425781 C 57.0625 71.078125 59.367188 70.570312 61.671875 69.890625 C 63.972656 69.207031 66.140625 68.371094 68.175781 67.398438 C 70.128906 66.464844 71.949219 65.394531 73.671875 64.167969 L 73.671875 41.117188 Z M 58.515625 40.144531 L 74.660156 40.144531 L 74.660156 64.691406 L 74.464844 64.847656 C 72.664062 66.152344 70.710938 67.300781 68.621094 68.3125 C 66.527344 69.324219 64.324219 70.164062 61.980469 70.863281 C 59.636719 71.5625 57.277344 72.089844 54.933594 72.441406 C 52.589844 72.789062 50.230469 72.964844 47.886719 72.964844 C 41.246094 72.964844 35.265625 71.542969 29.941406 68.722656 C 27.269531 67.300781 24.90625 65.605469 22.816406 63.640625 C 20.726562 61.675781 18.925781 59.417969 17.417969 56.886719 C 15.90625 54.355469 14.765625 51.667969 14.007812 48.789062 C 13.253906 45.925781 12.867188 42.890625 12.867188 39.714844 C 12.867188 36.523438 13.253906 33.503906 14.007812 30.644531 C 14.765625 27.78125 15.90625 25.078125 17.417969 22.546875 C 18.925781 20.015625 20.746094 17.777344 22.855469 15.789062 C 24.964844 13.824219 27.367188 12.132812 30.058594 10.710938 C 32.75 9.289062 35.613281 8.238281 38.652344 7.535156 C 41.691406 6.835938 44.886719 6.484375 48.273438 6.484375 C 51.214844 6.484375 54.023438 6.738281 56.695312 7.246094 C 59.347656 7.75 61.863281 8.492188 64.226562 9.503906 C 66.585938 10.515625 68.753906 11.742188 70.730469 13.183594 C 72.703125 14.621094 74.464844 16.296875 76.054688 18.183594 L 76.34375 18.535156 L 75.996094 18.847656 L 64.652344 29.085938 L 64.285156 29.417969 L 63.953125 29.066406 C 61.882812 26.769531 59.597656 25.058594 57.140625 23.910156 C 54.664062 22.761719 51.992188 22.195312 49.105469 22.195312 C 46.472656 22.195312 44.113281 22.585938 42 23.382812 C 39.910156 24.179688 38.050781 25.367188 36.464844 26.945312 C 34.878906 28.523438 33.675781 30.390625 32.882812 32.492188 C 32.089844 34.617188 31.683594 37.011719 31.683594 39.695312 C 31.683594 41.410156 31.859375 43.003906 32.226562 44.523438 C 32.59375 46.023438 33.136719 47.445312 33.851562 48.789062 C 34.566406 50.109375 35.4375 51.296875 36.464844 52.332031 C 37.472656 53.363281 38.632812 54.257812 39.929688 54.996094 C 41.226562 55.738281 42.640625 56.300781 44.132812 56.671875 C 45.621094 57.042969 47.230469 57.234375 48.914062 57.234375 C 50.578125 57.234375 52.203125 57.0625 53.753906 56.730469 C 55.203125 56.417969 56.617188 55.953125 57.992188 55.347656 L 57.992188 40.183594 L 58.515625 40.183594 Z M 58.515625 40.144531 " fill-opacity="1" fill-rule="nonzero"/></g><g fill="#000000" fill-opacity="1"><g transform="translate(131.764226, 28.457357)"><g><path d="M 11.402344 -22.335938 C 5.058594 -22.335938 0 -17.277344 0 -10.992188 C 0 -4.648438 5.058594 0.410156 11.402344 0.410156 C 13.710938 0.410156 15.902344 -0.261719 17.773438 -1.519531 C 19.207031 -2.515625 20.699219 -2.105469 21.078125 -0.320312 L 21.339844 -0.320312 L 21.339844 -6.722656 C 21.339844 -8.242188 21.429688 -9.589844 21.835938 -10.671875 L 17.277344 -10.671875 C 17.746094 -9.589844 17.863281 -8.242188 17.863281 -6.722656 L 17.863281 -3.859375 C 16.019531 -1.433594 12.570312 -0.496094 9.734375 -1.460938 C 6.257812 -2.71875 3.480469 -6.316406 3.480469 -10.992188 C 3.480469 -17.074219 7.953125 -21.222656 12.660156 -20.988281 C 16.957031 -20.757812 20.140625 -17.511719 21.164062 -13.738281 L 21.546875 -13.738281 L 21.546875 -18.828125 C 20.929688 -18.796875 19.996094 -19.265625 19.324219 -19.761719 C 16.664062 -21.546875 14.558594 -22.335938 11.402344 -22.335938 Z M 11.402344 -22.335938 "/></g></g></g><g fill="#000000" fill-opacity="1"><g transform="translate(156.048668, 28.457357)"><g><path d="M 3.859375 0 C 3.421875 -1.109375 3.332031 -2.105469 3.332031 -3.566406 L 3.332031 -18.359375 C 3.332031 -19.820312 3.421875 -20.816406 3.859375 -21.925781 C 2.574219 -21.925781 1.285156 -21.925781 0 -21.925781 C 0.410156 -20.816406 0.527344 -19.820312 0.527344 -18.359375 L 0.527344 -3.800781 C 0.527344 -2.398438 0.554688 -1.257812 1.050781 0 Z M 3.859375 0 "/></g></g></g><g fill="#000000" fill-opacity="1"><g transform="translate(162.360873, 28.457357)"><g><path d="M 7.164062 -14.324219 C 3.214844 -14.324219 0 -11.109375 0 -7.164062 C 0 -3.214844 3.214844 0 7.164062 0 C 11.109375 0 14.324219 -3.214844 14.324219 -7.164062 C 14.324219 -11.109375 11.109375 -14.324219 7.164062 -14.324219 Z M 10.289062 -1.871094 C 8.214844 -0.644531 5.144531 -2.015625 3.421875 -4.96875 C 1.695312 -7.894531 1.957031 -11.253906 4.035156 -12.453125 C 6.109375 -13.679688 9.179688 -12.308594 10.90625 -9.382812 C 12.628906 -6.429688 12.367188 -3.070312 10.289062 -1.871094 Z M 10.289062 -1.871094 "/></g></g></g><g fill="#000000" fill-opacity="1"><g transform="translate(179.105739, 28.457357)"><g><path d="M 14.5 -7.191406 C 14.5 -10.671875 12.25 -14.324219 8.476562 -14.324219 C 6.371094 -14.324219 4.386719 -13.066406 3.332031 -10.90625 L 3.332031 -18.386719 C 3.332031 -19.878906 3.480469 -20.875 3.828125 -21.925781 C 2.542969 -21.925781 1.285156 -21.925781 0 -21.925781 C 0.4375 -20.875 0.496094 -19.878906 0.496094 -18.386719 L 0.496094 -3.597656 C 0.496094 -2.105469 0.4375 -1.109375 0 0 L 2.777344 0 C 3.273438 -1.226562 3.332031 -2.425781 3.332031 -3.769531 L 3.332031 -5.875 C 3.332031 -10.523438 5.699219 -12.832031 7.921875 -12.773438 C 9.851562 -12.773438 11.695312 -10.847656 11.695312 -7.191406 C 11.695312 -4.328125 10.582031 -0.992188 7.980469 -0.992188 C 6.199219 -0.992188 5.203125 -2.921875 4.941406 -3.976562 L 3.886719 -2.542969 C 5.027344 -0.730469 6.636719 0 8.242188 0 C 11.636719 0 14.5 -2.71875 14.5 -7.191406 Z M 14.5 -7.191406 "/></g></g></g><g fill="#000000" fill-opacity="1"><g transform="translate(196.084392, 28.457357)"><g><path d="M 13.039062 -3.566406 C 13.039062 -5.117188 13.039062 -8.417969 13.039062 -10.378906 C 13.039062 -13.914062 10.320312 -14.324219 7.453125 -14.324219 C 4.851562 -14.324219 1.929688 -13.914062 0 -13.476562 L 2.015625 -10.671875 C 3.683594 -12.042969 5.847656 -13.273438 8.070312 -13.300781 C 11.195312 -13.359375 10.789062 -9.472656 7.894531 -8.742188 C 6.8125 -8.476562 5.640625 -8.710938 4.503906 -8.742188 C 1.839844 -8.800781 0 -7.105469 0 -4.386719 C 0 -1.519531 2.046875 0 4.355469 0 C 6.78125 0 9.441406 -1.695312 10.230469 -5.144531 L 10.230469 -3.859375 C 10.230469 -2.425781 10.261719 -1.257812 10.757812 0 L 13.566406 0 C 13.15625 -1.109375 13.039062 -2.105469 13.039062 -3.566406 Z M 5.4375 -1.550781 C 2.191406 -1.460938 1.550781 -6.871094 5.90625 -7.484375 C 7.425781 -7.6875 9.472656 -7.746094 10.230469 -9.238281 C 9.96875 -6.605469 8.886719 -1.636719 5.4375 -1.550781 Z M 5.4375 -1.550781 "/></g></g></g><g fill="#000000" fill-opacity="1"><g transform="translate(212.098679, 28.457357)"><g><path d="M 3.859375 0 C 3.421875 -1.109375 3.332031 -2.105469 3.332031 -3.566406 L 3.332031 -18.359375 C 3.332031 -19.820312 3.421875 -20.816406 3.859375 -21.925781 C 2.574219 -21.925781 1.285156 -21.925781 0 -21.925781 C 0.410156 -20.816406 0.527344 -19.820312 0.527344 -18.359375 L 0.527344 -3.800781 C 0.527344 -2.398438 0.554688 -1.257812 1.050781 0 Z M 3.859375 0 "/></g></g></g><g fill="#000000" fill-opacity="1"><g transform="translate(79.954571, 68.659683)"><g/></g></g><g fill="#000000" fill-opacity="1"><g transform="translate(90.032463, 68.659683)"><g><path d="M 10.554688 -3.886719 C 10.554688 -9.5 10.554688 -15.144531 10.554688 -20.785156 L 13.59375 -20.785156 C 16.226562 -20.785156 17.21875 -19.207031 17.453125 -18.59375 L 17.714844 -18.59375 L 17.511719 -21.925781 L 0.203125 -21.925781 L 0 -18.59375 L 0.261719 -18.59375 C 0.496094 -19.207031 1.492188 -20.785156 4.09375 -20.785156 L 7.164062 -20.785156 C 7.164062 -15.144531 7.164062 -9.5 7.164062 -3.886719 C 7.164062 -2.398438 7.074219 -1.109375 6.636719 0 L 11.050781 0 C 10.640625 -1.109375 10.554688 -2.398438 10.554688 -3.886719 Z M 10.554688 -3.886719 "/></g></g></g><g fill="#000000" fill-opacity="1"><g transform="translate(110.196437, 68.659683)"><g><path d="M 6.082031 -2.367188 C 4.941406 -3.097656 5.933594 -4.152344 7.804688 -4.617188 C 8.769531 -4.882812 9.882812 -5.027344 10.847656 -5.351562 C 13.972656 -6.402344 14.382812 -9.792969 12.394531 -12.074219 C 11.167969 -13.476562 9.207031 -14.324219 7.164062 -14.324219 C 3.214844 -14.324219 0 -11.109375 0 -7.164062 C 0 -3.214844 3.214844 0 7.164062 0 C 9.96875 0 12.425781 -1.609375 13.59375 -3.976562 L 13.039062 -4.734375 C 11.925781 -2.164062 8.566406 -0.789062 6.082031 -2.367188 Z M 4.503906 -3.539062 C 4.09375 -3.945312 3.742188 -4.414062 3.421875 -4.96875 C 1.695312 -7.894531 1.957031 -11.253906 4.035156 -12.453125 C 4.792969 -12.890625 5.640625 -12.980469 6.460938 -12.863281 C 8.273438 -12.542969 10.144531 -11.109375 10.671875 -9.324219 C 11.019531 -8.128906 10.699219 -6.898438 9.324219 -6.316406 C 7.6875 -5.640625 5.378906 -5.320312 4.503906 -3.539062 Z M 4.503906 -3.539062 "/></g></g></g><g fill="#000000" fill-opacity="1"><g transform="translate(126.327611, 68.659683)"><g><path d="M 7.164062 -14.324219 C 3.214844 -14.324219 0 -11.109375 0 -7.164062 C 0 -3.214844 3.214844 0 7.164062 0 C 9.96875 0 12.425781 -1.609375 13.59375 -3.976562 L 13.039062 -4.734375 C 11.253906 -0.585938 5.847656 -0.820312 3.421875 -4.96875 C 1.695312 -7.894531 1.957031 -11.253906 4.035156 -12.453125 C 4.675781 -12.832031 5.410156 -12.980469 6.140625 -12.890625 C 8.507812 -12.628906 9.851562 -10.757812 10.789062 -8.769531 L 12.804688 -11.578125 C 11.488281 -13.273438 9.441406 -14.324219 7.164062 -14.324219 Z M 7.164062 -14.324219 "/></g></g></g><g fill="#000000" fill-opacity="1"><g transform="translate(142.341898, 68.659683)"><g><path d="M 0 0 L 2.804688 0 C 3.304688 -1.257812 3.332031 -2.398438 3.332031 -3.800781 L 3.332031 -10.789062 C 4.269531 -11.3125 5.640625 -12.015625 6.871094 -12.425781 C 9.035156 -13.125 10.757812 -12.890625 10.757812 -10.085938 L 10.757812 -3.566406 C 10.757812 -2.105469 10.640625 -1.109375 10.230469 0 C 11.519531 0 12.804688 0 14.089844 0 C 13.679688 -1.109375 13.566406 -2.105469 13.566406 -3.566406 C 13.566406 -5.671875 13.566406 -8.449219 13.566406 -10.671875 C 13.566406 -13.097656 12.25 -14.324219 9.851562 -14.324219 C 7.570312 -14.324219 5.175781 -13.039062 3.332031 -11.898438 L 3.332031 -18.359375 C 3.332031 -19.820312 3.421875 -20.816406 3.859375 -21.925781 C 2.574219 -21.925781 1.285156 -21.925781 0 -21.925781 C 0.410156 -20.816406 0.527344 -19.820312 0.527344 -18.359375 L 0.527344 -3.566406 C 0.527344 -2.105469 0.410156 -1.109375 0 0 Z M 0 0 "/></g></g></g><g fill="#000000" fill-opacity="1"><g transform="translate(158.969864, 68.659683)"><g><path d="M 0 -14.324219 C 0.410156 -13.242188 0.527344 -12.25 0.527344 -10.757812 L 0.527344 -3.566406 C 0.527344 -2.105469 0.410156 -1.109375 0 0 C 1.285156 0 2.574219 0 3.859375 0 C 3.421875 -1.109375 3.332031 -2.105469 3.332031 -3.566406 L 3.332031 -10.554688 C 3.332031 -10.613281 3.332031 -10.699219 3.332031 -10.789062 C 4.269531 -11.3125 5.640625 -12.015625 6.871094 -12.425781 C 9.035156 -13.125 10.757812 -12.890625 10.757812 -10.085938 L 10.757812 -3.566406 C 10.757812 -2.105469 10.640625 -1.109375 10.230469 0 C 11.519531 0 12.804688 0 14.089844 0 C 13.679688 -1.109375 13.566406 -2.105469 13.566406 -3.566406 C 13.566406 -5.671875 13.566406 -8.449219 13.566406 -10.671875 C 13.566406 -13.097656 12.25 -14.324219 9.851562 -14.324219 C 7.542969 -14.324219 5.144531 -13.007812 3.304688 -11.867188 C 3.273438 -12.71875 3.128906 -13.507812 2.804688 -14.324219 Z M 0 -14.324219 "/></g></g></g><g fill="#000000" fill-opacity="1"><g transform="translate(175.510161, 68.659683)"><g><path d="M 7.164062 -14.324219 C 3.214844 -14.324219 0 -11.109375 0 -7.164062 C 0 -3.214844 3.214844 0 7.164062 0 C 11.109375 0 14.324219 -3.214844 14.324219 -7.164062 C 14.324219 -11.109375 11.109375 -14.324219 7.164062 -14.324219 Z M 10.289062 -1.871094 C 8.214844 -0.644531 5.144531 -2.015625 3.421875 -4.96875 C 1.695312 -7.894531 1.957031 -11.253906 4.035156 -12.453125 C 6.109375 -13.679688 9.179688 -12.308594 10.90625 -9.382812 C 12.628906 -6.429688 12.367188 -3.070312 10.289062 -1.871094 Z M 10.289062 -1.871094 "/></g></g></g><g fill="#000000" fill-opacity="1"><g transform="translate(192.255027, 68.659683)"><g><path d="M 3.859375 0 C 3.421875 -1.109375 3.332031 -2.105469 3.332031 -3.566406 L 3.332031 -18.359375 C 3.332031 -19.820312 3.421875 -20.816406 3.859375 -21.925781 C 2.574219 -21.925781 1.285156 -21.925781 0 -21.925781 C 0.410156 -20.816406 0.527344 -19.820312 0.527344 -18.359375 L 0.527344 -3.800781 C 0.527344 -2.398438 0.554688 -1.257812 1.050781 0 Z M 3.859375 0 "/></g></g></g><g fill="#000000" fill-opacity="1"><g transform="translate(198.567233, 68.659683)"><g><path d="M 7.164062 -14.324219 C 3.214844 -14.324219 0 -11.109375 0 -7.164062 C 0 -3.214844 3.214844 0 7.164062 0 C 11.109375 0 14.324219 -3.214844 14.324219 -7.164062 C 14.324219 -11.109375 11.109375 -14.324219 7.164062 -14.324219 Z M 10.289062 -1.871094 C 8.214844 -0.644531 5.144531 -2.015625 3.421875 -4.96875 C 1.695312 -7.894531 1.957031 -11.253906 4.035156 -12.453125 C 6.109375 -13.679688 9.179688 -12.308594 10.90625 -9.382812 C 12.628906 -6.429688 12.367188 -3.070312 10.289062 -1.871094 Z M 10.289062 -1.871094 "/></g></g></g><g fill="#000000" fill-opacity="1"><g transform="translate(215.312098, 68.659683)"><g><path d="M 13.390625 0.320312 C 11.167969 0.644531 8.945312 1.695312 6.988281 2.222656 C 2.398438 3.421875 1.8125 1.109375 2.746094 -1.519531 C 3.976562 -0.585938 5.496094 0 7.164062 0 C 11.136719 0 14.324219 -3.214844 14.324219 -7.164062 C 14.324219 -10.144531 12.511719 -12.71875 9.941406 -13.796875 C 11.546875 -14.179688 13.066406 -15.054688 13.066406 -16.898438 L 10.230469 -16.898438 C 10.230469 -14.324219 8.332031 -14.324219 7.164062 -14.324219 C 3.214844 -14.324219 0 -11.136719 0 -7.164062 C 0 -5.496094 0.585938 -3.917969 1.578125 -2.71875 C -1.023438 1.550781 0.964844 5.523438 6.429688 3.566406 C 9.003906 2.632812 12.21875 0.933594 14.734375 1.492188 C 17.949219 2.191406 18.039062 6.226562 15.289062 7.570312 C 10.289062 10.085938 4.386719 4.589844 -0.496094 4.792969 C -2.894531 4.910156 -5.058594 6.023438 -6.050781 8.332031 L -3.886719 10.261719 C -2.457031 7.015625 0.117188 6.34375 2.953125 6.839844 C 6.285156 7.453125 9.648438 9.179688 13.097656 9.238281 C 15.992188 9.296875 20.171875 7.777344 20.140625 4.328125 C 20.082031 1.957031 17.714844 -0.292969 13.390625 0.320312 Z M 8.273438 -12.132812 C 9.265625 -11.519531 10.203125 -10.582031 10.933594 -9.382812 C 12.660156 -6.460938 12.367188 -3.097656 10.289062 -1.871094 C 8.449219 -0.789062 5.789062 -1.785156 4.035156 -4.0625 C 4.296875 -4.503906 4.589844 -4.910156 4.882812 -5.320312 C 6.578125 -7.453125 8.214844 -9.5 8.359375 -11.109375 C 8.390625 -11.488281 8.359375 -11.839844 8.273438 -12.132812 Z M 4.0625 -12.484375 C 4.707031 -12.863281 5.496094 -12.980469 6.285156 -12.863281 C 7.308594 -12.601562 7.394531 -11.429688 7.132812 -10.613281 C 6.695312 -9.324219 5.378906 -7.660156 4.003906 -5.933594 C 3.800781 -5.671875 3.566406 -5.410156 3.332031 -5.117188 C 1.726562 -8.011719 2.015625 -11.285156 4.0625 -12.484375 Z M 4.0625 -12.484375 "/></g></g></g><g fill="#000000" fill-opacity="1"><g transform="translate(232.173851, 68.659683)"><g><path d="M 3.332031 -3.566406 C 3.332031 -5.964844 3.332031 -8.359375 3.332031 -10.757812 C 3.332031 -12.25 3.421875 -13.242188 3.859375 -14.324219 C 2.574219 -14.324219 1.285156 -14.324219 0 -14.324219 C 0.410156 -13.242188 0.527344 -12.25 0.527344 -10.757812 C 0.527344 -8.359375 0.527344 -5.964844 0.527344 -3.566406 C 0.527344 -2.105469 0.410156 -1.109375 0 0 C 1.285156 0 2.574219 0 3.859375 0 C 3.421875 -1.109375 3.332031 -2.105469 3.332031 -3.566406 Z M 1.929688 -18.125 C 1.140625 -18.125 0.527344 -17.511719 0.527344 -16.722656 C 0.527344 -15.933594 1.140625 -15.320312 1.929688 -15.320312 C 2.691406 -15.320312 3.332031 -15.933594 3.332031 -16.722656 C 3.332031 -17.511719 2.691406 -18.125 1.929688 -18.125 Z M 1.929688 -18.125 "/></g></g></g><g fill="#000000" fill-opacity="1"><g transform="translate(238.486057, 68.659683)"><g><path d="M 6.082031 -2.367188 C 4.941406 -3.097656 5.933594 -4.152344 7.804688 -4.617188 C 8.769531 -4.882812 9.882812 -5.027344 10.847656 -5.351562 C 13.972656 -6.402344 14.382812 -9.792969 12.394531 -12.074219 C 11.167969 -13.476562 9.207031 -14.324219 7.164062 -14.324219 C 3.214844 -14.324219 0 -11.109375 0 -7.164062 C 0 -3.214844 3.214844 0 7.164062 0 C 9.96875 0 12.425781 -1.609375 13.59375 -3.976562 L 13.039062 -4.734375 C 11.925781 -2.164062 8.566406 -0.789062 6.082031 -2.367188 Z M 4.503906 -3.539062 C 4.09375 -3.945312 3.742188 -4.414062 3.421875 -4.96875 C 1.695312 -7.894531 1.957031 -11.253906 4.035156 -12.453125 C 4.792969 -12.890625 5.640625 -12.980469 6.460938 -12.863281 C 8.273438 -12.542969 10.144531 -11.109375 10.671875 -9.324219 C 11.019531 -8.128906 10.699219 -6.898438 9.324219 -6.316406 C 7.6875 -5.640625 5.378906 -5.320312 4.503906 -3.539062 Z M 4.503906 -3.539062 "/></g></g></g><g fill="#000000" fill-opacity="1"><g transform="translate(254.61723, 68.659683)"><g><path d="M 0 -10.496094 C 0.0585938 -7.164062 6.34375 -6.167969 9.5 -4.472656 C 11.34375 -3.480469 12.308594 -1.8125 9.5 -1.167969 C 8.652344 -0.964844 7.6875 -0.992188 7.046875 -1.109375 C 5.203125 -1.433594 3.449219 -2.484375 2.015625 -3.652344 L 0 -0.847656 C 1.929688 -0.410156 4.851562 0 7.453125 0 C 10.992188 0 13.097656 -1.726562 13.066406 -3.828125 C 13.007812 -7.425781 5.730469 -8.300781 2.863281 -10.261719 C 1.257812 -11.371094 1.460938 -12.6875 3.539062 -13.15625 C 4.386719 -13.359375 5.351562 -13.332031 6.023438 -13.214844 C 7.863281 -12.890625 9.617188 -11.839844 11.050781 -10.671875 L 13.066406 -13.476562 C 11.136719 -13.914062 8.183594 -14.324219 5.613281 -14.324219 C 2.074219 -14.324219 -0.0273438 -12.601562 0 -10.496094 Z M 0 -10.496094 "/></g></g></g></svg>