<svg xmlns="http://www.w3.org/2000/svg" xmlns:xlink="http://www.w3.org/1999/xlink" width="420" zoomAndPan="magnify" viewBox="0 0 315 83.249999" height="111" preserveAspectRatio="xMidYMid meet" version="1.0"><defs><g/><clipPath id="ca2665f0fc"><path d="M 1.40625 0 L 313.59375 0 L 313.59375 82.507812 L 1.40625 82.507812 Z M 1.40625 0 " clip-rule="nonzero"/></clipPath><clipPath id="6ca3067cda"><path d="M 12.460938 6.839844 L 76 6.839844 L 76 75.964844 L 12.460938 75.964844 Z M 12.460938 6.839844 " clip-rule="nonzero"/></clipPath><clipPath id="7e44eb672a"><path d="M 12.460938 8 L 76.382812 8 L 76.382812 75 L 12.460938 75 Z M 12.460938 8 " clip-rule="nonzero"/></clipPath></defs><g clip-path="url(#ca2665f0fc)"><path fill="#ffffff" d="M 1.40625 0 L 313.59375 0 L 313.59375 82.507812 L 1.40625 82.507812 Z M 1.40625 0 " fill-opacity="1" fill-rule="nonzero"/><path fill="#000000" d="M 1.40625 0 L 313.59375 0 L 313.59375 82.507812 L 1.40625 82.507812 Z M 1.40625 0 " fill-opacity="1" fill-rule="nonzero"/></g><g clip-path="url(#6ca3067cda)"><path fill="#3b38eb" d="M 42.929688 22.042969 C 43.046875 22.042969 43.144531 22.042969 43.242188 22.0625 C 43.957031 20 44.75 18.011719 45.621094 16.105469 C 46.589844 13.964844 47.636719 11.941406 48.738281 10.011719 C 48.699219 9.972656 48.679688 9.953125 48.640625 9.914062 L 35.417969 19.84375 C 35.535156 20.078125 35.59375 20.347656 35.59375 20.640625 C 35.59375 20.71875 35.59375 20.777344 35.574219 20.855469 L 41.304688 23.035156 C 41.613281 22.433594 42.234375 22.042969 42.929688 22.042969 M 34.453125 27.609375 C 34.585938 27.242188 34.859375 26.910156 35.1875 26.695312 L 33.773438 22.453125 C 32.769531 22.453125 31.972656 21.632812 31.972656 20.621094 C 31.972656 20.582031 31.972656 20.523438 31.972656 20.484375 L 25.566406 18.03125 C 25.449219 18.1875 25.296875 18.34375 25.140625 18.460938 L 27.617188 25.566406 C 27.65625 25.566406 27.695312 25.566406 27.734375 25.566406 C 28.664062 25.566406 29.417969 26.246094 29.535156 27.144531 Z M 36.15625 26.402344 C 36.523438 26.402344 36.871094 26.519531 37.160156 26.714844 C 37.761719 26.226562 38.402344 25.78125 39.078125 25.390625 C 39.738281 25.003906 40.433594 24.652344 41.167969 24.339844 C 41.128906 24.222656 41.109375 24.105469 41.109375 23.96875 L 35.226562 21.730469 C 35.089844 21.925781 34.917969 22.082031 34.703125 22.199219 L 36.117188 26.421875 Z M 15.132812 31.757812 C 15.382812 31.894531 15.617188 32.089844 15.789062 32.320312 L 25.953125 27.785156 C 25.933594 27.648438 25.914062 27.53125 25.914062 27.398438 C 25.914062 26.773438 26.222656 26.226562 26.6875 25.898438 L 24.210938 18.792969 C 24.171875 18.792969 24.132812 18.792969 24.09375 18.792969 C 23.746094 18.792969 23.398438 18.695312 23.128906 18.5 C 21.230469 20.328125 19.605469 22.394531 18.210938 24.710938 C 16.894531 26.929688 15.867188 29.265625 15.132812 31.757812 Z M 16.273438 53.597656 C 16.5625 53.597656 16.835938 53.65625 17.066406 53.773438 L 24.617188 45.132812 C 24.425781 44.839844 24.328125 44.507812 24.328125 44.117188 C 24.328125 43.808594 24.40625 43.515625 24.539062 43.261719 L 15.171875 35.007812 C 14.917969 35.144531 14.628906 35.222656 14.339844 35.222656 C 13.988281 37.1875 13.816406 39.25 13.816406 41.394531 C 13.816406 44.507812 14.183594 47.449219 14.917969 50.230469 C 15.230469 51.398438 15.597656 52.527344 16.042969 53.636719 C 16.121094 53.597656 16.195312 53.597656 16.273438 53.597656 Z M 26.070312 54.398438 C 26.203125 53.832031 26.59375 53.367188 27.113281 53.132812 L 26.011719 45.949219 C 25.777344 45.929688 25.546875 45.871094 25.351562 45.773438 L 17.804688 54.417969 C 17.878906 54.554688 17.957031 54.6875 17.996094 54.84375 Z M 24.210938 65.277344 C 24.480469 65.066406 24.832031 64.929688 25.199219 64.910156 L 27 56.421875 C 26.574219 56.207031 26.261719 55.816406 26.109375 55.371094 L 18.035156 55.816406 C 17.957031 56.1875 17.765625 56.539062 17.472656 56.792969 C 17.707031 57.21875 17.9375 57.648438 18.191406 58.058594 C 19.660156 60.511719 21.402344 62.691406 23.4375 64.597656 C 23.707031 64.8125 23.960938 65.046875 24.210938 65.277344 Z M 33.523438 63.3125 C 33.523438 63.234375 33.503906 63.175781 33.503906 63.097656 C 33.503906 62.164062 34.199219 61.40625 35.089844 61.289062 L 35.496094 56.03125 C 35.03125 55.816406 34.664062 55.410156 34.511719 54.902344 L 29.59375 55.175781 C 29.417969 55.972656 28.742188 56.578125 27.929688 56.617188 L 26.128906 65.105469 C 26.378906 65.242188 26.613281 65.433594 26.785156 65.6875 Z M 33.117188 70.828125 C 33.386719 70.339844 33.851562 69.992188 34.414062 69.914062 L 34.820312 64.871094 C 34.453125 64.753906 34.121094 64.539062 33.890625 64.226562 L 27.132812 66.621094 C 27.132812 66.660156 27.132812 66.699219 27.132812 66.738281 C 27.132812 66.992188 27.078125 67.226562 27 67.460938 C 28.0625 68.199219 29.207031 68.898438 30.386719 69.523438 C 31.277344 69.992188 32.1875 70.417969 33.117188 70.828125 Z M 41.847656 64.207031 C 42.058594 63.878906 42.390625 63.625 42.757812 63.488281 C 42.410156 62.28125 42.078125 61.113281 41.789062 59.925781 C 41.75 59.925781 41.730469 59.925781 41.691406 59.925781 C 40.683594 59.925781 39.871094 59.109375 39.871094 58.097656 C 39.871094 57.960938 39.890625 57.84375 39.910156 57.726562 C 39.777344 57.648438 39.621094 57.570312 39.484375 57.492188 C 38.671875 57.023438 37.917969 56.519531 37.199219 55.933594 C 36.988281 56.070312 36.734375 56.148438 36.464844 56.1875 L 36.058594 61.425781 C 36.679688 61.699219 37.105469 62.300781 37.144531 63.019531 Z M 44.945312 73.550781 C 45.117188 73.046875 45.503906 72.636719 46.007812 72.441406 C 45.234375 70.59375 44.519531 68.765625 43.898438 66.972656 C 43.726562 67.03125 43.550781 67.050781 43.375 67.050781 C 42.371094 67.050781 41.554688 66.234375 41.554688 65.222656 L 41.554688 65.144531 L 36.929688 63.976562 C 36.699219 64.402344 36.289062 64.734375 35.808594 64.871094 L 35.402344 70.007812 C 36.078125 70.28125 36.542969 70.945312 36.542969 71.703125 C 36.542969 71.820312 36.523438 71.9375 36.503906 72.035156 C 37.125 72.230469 37.742188 72.382812 38.363281 72.539062 C 40.472656 73.066406 42.660156 73.398438 44.945312 73.550781 Z M 31.257812 36.019531 C 31.277344 36.019531 31.316406 36.019531 31.335938 36.019531 C 31.507812 35.261719 31.742188 34.539062 31.992188 33.839844 C 32.632812 32.144531 33.503906 30.609375 34.625 29.226562 C 34.492188 29.03125 34.414062 28.796875 34.375 28.566406 L 29.398438 28.097656 C 29.265625 28.410156 29.050781 28.679688 28.761719 28.875 Z M 29.980469 39 C 29.726562 38.6875 29.574219 38.277344 29.574219 37.851562 C 29.574219 37.226562 29.882812 36.683594 30.347656 36.351562 L 27.851562 29.207031 C 27.8125 29.207031 27.773438 29.207031 27.734375 29.207031 C 27.210938 29.207031 26.746094 28.992188 26.417969 28.640625 L 16.136719 33.21875 C 16.136719 33.277344 16.136719 33.316406 16.136719 33.371094 C 16.136719 33.722656 16.042969 34.035156 15.886719 34.308594 L 25.21875 42.542969 C 25.488281 42.386719 25.816406 42.289062 26.148438 42.289062 C 26.4375 42.289062 26.707031 42.347656 26.941406 42.464844 Z M 30.792969 39.582031 L 30.753906 39.5625 L 27.65625 43.125 C 27.851562 43.417969 27.949219 43.75 27.949219 44.117188 C 27.949219 44.839844 27.539062 45.441406 26.960938 45.753906 L 28.0625 52.996094 C 28.761719 53.074219 29.339844 53.558594 29.554688 54.203125 L 34.511719 53.929688 C 34.546875 53.753906 34.625 53.597656 34.703125 53.460938 C 34.085938 52.683594 33.523438 51.847656 33.019531 50.933594 C 32.246094 49.53125 31.683594 48.03125 31.296875 46.433594 C 30.910156 44.839844 30.714844 43.164062 30.714844 41.375 C 30.734375 40.769531 30.753906 40.167969 30.792969 39.582031 Z M 33.753906 12.894531 C 33.347656 12.757812 33 12.484375 32.769531 12.132812 C 31.992188 12.464844 31.21875 12.835938 30.464844 13.242188 C 28.78125 14.121094 27.210938 15.132812 25.761719 16.242188 C 25.855469 16.457031 25.914062 16.710938 25.914062 16.960938 C 25.914062 17.019531 25.914062 17.078125 25.914062 17.136719 L 32.304688 19.570312 C 32.59375 19.160156 33.039062 18.871094 33.5625 18.8125 Z M 36.097656 10.886719 C 36.117188 10.964844 36.117188 11.0625 36.117188 11.140625 C 36.117188 12 35.515625 12.71875 34.722656 12.914062 L 34.527344 18.929688 C 34.625 18.96875 34.703125 19.027344 34.800781 19.066406 L 48.101562 9.078125 C 43.800781 9.117188 39.792969 9.71875 36.097656 10.886719 Z M 58.515625 42.308594 L 74.175781 42.308594 L 74.175781 66.117188 C 70.59375 68.707031 66.472656 70.671875 61.824219 72.054688 C 57.371094 73.378906 52.921875 74.058594 48.488281 74.117188 L 48.488281 74.136719 C 48.488281 75.148438 47.671875 75.964844 46.667969 75.964844 C 45.796875 75.964844 45.058594 75.34375 44.886719 74.527344 C 42.542969 74.371094 40.296875 74.019531 38.128906 73.496094 C 37.433594 73.320312 36.734375 73.125 36.058594 72.929688 C 35.730469 73.300781 35.246094 73.535156 34.703125 73.535156 C 33.714844 73.535156 32.921875 72.753906 32.882812 71.78125 C 31.878906 71.351562 30.890625 70.886719 29.921875 70.378906 C 28.683594 69.71875 27.503906 68.996094 26.378906 68.21875 C 26.089844 68.433594 25.722656 68.570312 25.316406 68.570312 C 24.308594 68.570312 23.496094 67.75 23.496094 66.738281 C 23.496094 66.503906 23.535156 66.273438 23.628906 66.058594 C 23.339844 65.804688 23.070312 65.550781 22.796875 65.296875 C 20.707031 63.332031 18.90625 61.074219 17.398438 58.542969 C 17.125 58.097656 16.875 57.667969 16.640625 57.21875 C 16.527344 57.238281 16.410156 57.257812 16.292969 57.257812 C 15.285156 57.257812 14.472656 56.441406 14.472656 55.429688 C 14.472656 54.84375 14.746094 54.339844 15.152344 54.007812 C 14.6875 52.859375 14.300781 51.671875 13.988281 50.464844 C 13.234375 47.601562 12.847656 44.566406 12.847656 41.394531 C 12.847656 39.175781 13.023438 37.03125 13.390625 34.96875 C 12.847656 34.65625 12.5 34.074219 12.5 33.390625 C 12.5 32.4375 13.234375 31.640625 14.183594 31.5625 C 14.9375 28.972656 16.003906 26.519531 17.398438 24.203125 C 18.828125 21.808594 20.53125 19.667969 22.488281 17.78125 C 22.371094 17.527344 22.292969 17.253906 22.292969 16.960938 C 22.292969 15.949219 23.109375 15.132812 24.113281 15.132812 C 24.5 15.132812 24.871094 15.25 25.179688 15.484375 C 26.667969 14.335938 28.296875 13.300781 30.039062 12.386719 C 30.851562 11.960938 31.664062 11.570312 32.496094 11.21875 L 32.496094 11.179688 C 32.496094 10.167969 33.308594 9.351562 34.316406 9.351562 C 34.878906 9.351562 35.382812 9.605469 35.730469 10.011719 C 39.601562 8.765625 43.761719 8.164062 48.234375 8.144531 C 48.449219 7.382812 49.144531 6.839844 49.976562 6.839844 C 50.984375 6.839844 51.796875 7.65625 51.796875 8.667969 C 51.796875 8.707031 51.796875 8.726562 51.796875 8.765625 C 56.230469 9.097656 60.316406 10.03125 63.992188 11.609375 C 68.640625 13.59375 72.53125 16.4375 75.628906 20.15625 L 64.359375 30.414062 C 60.121094 25.742188 55.050781 23.386719 49.144531 23.386719 C 47.597656 23.386719 46.144531 23.523438 44.769531 23.796875 C 44.769531 23.816406 44.769531 23.855469 44.769531 23.871094 C 44.769531 24.886719 43.957031 25.703125 42.949219 25.703125 C 42.464844 25.703125 42.019531 25.507812 41.691406 25.195312 C 40.957031 25.488281 40.257812 25.839844 39.582031 26.226562 C 38.960938 26.597656 38.382812 27.007812 37.820312 27.453125 C 37.9375 27.6875 37.996094 27.960938 37.996094 28.234375 C 37.996094 29.246094 37.179688 30.0625 36.175781 30.0625 C 35.882812 30.0625 35.613281 30.003906 35.382812 29.867188 C 34.335938 31.152344 33.523438 32.59375 32.921875 34.171875 C 32.671875 34.832031 32.457031 35.535156 32.285156 36.234375 C 32.84375 36.546875 33.210938 37.148438 33.210938 37.832031 C 33.210938 38.707031 32.59375 39.445312 31.78125 39.621094 C 31.742188 40.1875 31.722656 40.769531 31.722656 41.355469 C 31.722656 43.066406 31.898438 44.664062 32.265625 46.183594 C 32.632812 47.679688 33.175781 49.101562 33.890625 50.445312 C 34.335938 51.28125 34.859375 52.042969 35.417969 52.761719 C 35.671875 52.625 35.960938 52.546875 36.289062 52.546875 C 37.296875 52.546875 38.109375 53.367188 38.109375 54.378906 C 38.109375 54.6875 38.03125 54.980469 37.898438 55.234375 C 38.535156 55.742188 39.234375 56.226562 39.96875 56.636719 C 40.105469 56.714844 40.222656 56.773438 40.355469 56.851562 C 40.683594 56.480469 41.167969 56.265625 41.691406 56.265625 C 42.699219 56.265625 43.511719 57.082031 43.511719 58.097656 C 43.511719 58.269531 43.492188 58.445312 43.433594 58.621094 C 45.136719 59.109375 46.976562 59.359375 48.953125 59.359375 C 52.359375 59.359375 55.554688 58.679688 58.535156 57.296875 L 58.535156 42.308594 Z M 58.515625 42.308594 " fill-opacity="1" fill-rule="evenodd"/></g><g clip-path="url(#7e44eb672a)"><path fill="#3b38eb" d="M 73.691406 42.792969 L 59 42.792969 L 59 57.609375 L 58.707031 57.746094 C 57.179688 58.445312 55.609375 58.972656 53.964844 59.324219 C 52.339844 59.671875 50.65625 59.847656 48.914062 59.847656 C 47.152344 59.847656 45.46875 59.652344 43.898438 59.265625 C 42.3125 58.875 40.839844 58.269531 39.464844 57.492188 C 38.089844 56.714844 36.851562 55.761719 35.789062 54.667969 C 34.703125 53.578125 33.792969 52.3125 33.019531 50.914062 C 32.246094 49.511719 31.683594 48.011719 31.296875 46.414062 C 30.910156 44.820312 30.714844 43.144531 30.714844 41.355469 C 30.714844 38.570312 31.140625 36.058594 31.972656 33.820312 C 32.824219 31.5625 34.085938 29.597656 35.769531 27.921875 C 37.453125 26.226562 39.40625 24.984375 41.652344 24.125 C 43.878906 23.289062 46.359375 22.859375 49.085938 22.859375 C 52.105469 22.859375 54.914062 23.464844 57.527344 24.652344 C 59.984375 25.78125 62.269531 27.453125 64.339844 29.675781 L 74.910156 20.058594 C 73.460938 18.363281 71.851562 16.882812 70.070312 15.5625 C 68.15625 14.160156 66.066406 12.972656 63.78125 12 C 61.496094 11.023438 59.039062 10.285156 56.441406 9.796875 C 53.847656 9.3125 51.101562 9.058594 48.214844 9.058594 C 44.90625 9.058594 41.769531 9.410156 38.808594 10.089844 C 35.84375 10.773438 33.058594 11.804688 30.445312 13.1875 C 27.832031 14.566406 25.507812 16.203125 23.457031 18.109375 C 21.421875 20.019531 19.660156 22.199219 18.191406 24.652344 C 16.71875 27.105469 15.617188 29.714844 14.878906 32.496094 C 14.144531 35.28125 13.777344 38.21875 13.777344 41.335938 C 13.777344 44.449219 14.144531 47.390625 14.878906 50.171875 C 15.617188 52.9375 16.71875 55.566406 18.191406 58.019531 C 19.660156 60.472656 21.402344 62.652344 23.4375 64.558594 C 25.46875 66.464844 27.773438 68.121094 30.347656 69.484375 C 35.515625 72.230469 41.363281 73.609375 47.847656 73.609375 C 50.152344 73.609375 52.457031 73.4375 54.757812 73.105469 C 57.0625 72.753906 59.367188 72.25 61.671875 71.566406 C 63.972656 70.886719 66.140625 70.046875 68.175781 69.074219 C 70.128906 68.140625 71.949219 67.070312 73.671875 65.84375 L 73.671875 42.792969 Z M 58.515625 41.820312 L 74.660156 41.820312 L 74.660156 66.371094 L 74.464844 66.523438 C 72.664062 67.828125 70.710938 68.976562 68.621094 69.992188 C 66.527344 71.003906 64.324219 71.839844 61.980469 72.539062 C 59.636719 73.242188 57.277344 73.765625 54.933594 74.117188 C 52.589844 74.46875 50.230469 74.644531 47.886719 74.644531 C 41.246094 74.644531 35.265625 73.222656 29.941406 70.398438 C 27.269531 68.976562 24.90625 67.285156 22.816406 65.316406 C 20.726562 63.351562 18.925781 61.09375 17.417969 58.5625 C 15.90625 56.03125 14.765625 53.347656 14.007812 50.464844 C 13.253906 47.601562 12.867188 44.566406 12.867188 41.394531 C 12.867188 38.199219 13.253906 35.183594 14.007812 32.320312 C 14.765625 29.460938 15.90625 26.753906 17.417969 24.222656 C 18.925781 21.691406 20.746094 19.453125 22.855469 17.46875 C 24.964844 15.503906 27.367188 13.808594 30.058594 12.386719 C 32.75 10.964844 35.613281 9.914062 38.652344 9.214844 C 41.691406 8.511719 44.886719 8.164062 48.273438 8.164062 C 51.214844 8.164062 54.023438 8.417969 56.695312 8.921875 C 59.347656 9.429688 61.863281 10.167969 64.226562 11.179688 C 66.585938 12.191406 68.753906 13.417969 70.730469 14.859375 C 72.703125 16.300781 74.464844 17.972656 76.054688 19.863281 L 76.34375 20.214844 L 75.996094 20.523438 L 64.652344 30.765625 L 64.285156 31.09375 L 63.953125 30.746094 C 61.882812 28.449219 59.597656 26.734375 57.140625 25.585938 C 54.664062 24.4375 51.992188 23.871094 49.105469 23.871094 C 46.472656 23.871094 44.113281 24.261719 42 25.058594 C 39.910156 25.859375 38.050781 27.046875 36.464844 28.621094 C 34.878906 30.199219 33.675781 32.070312 32.882812 34.171875 C 32.089844 36.292969 31.683594 38.6875 31.683594 41.375 C 31.683594 43.085938 31.859375 44.683594 32.226562 46.203125 C 32.59375 47.699219 33.136719 49.121094 33.851562 50.464844 C 34.566406 51.789062 35.4375 52.976562 36.464844 54.007812 C 37.472656 55.039062 38.632812 55.933594 39.929688 56.675781 C 41.226562 57.414062 42.640625 57.980469 44.132812 58.347656 C 45.621094 58.71875 47.230469 58.914062 48.914062 58.914062 C 50.578125 58.914062 52.203125 58.738281 53.753906 58.40625 C 55.203125 58.097656 56.617188 57.628906 57.992188 57.023438 L 57.992188 41.859375 L 58.515625 41.859375 Z M 58.515625 41.820312 " fill-opacity="1" fill-rule="nonzero"/></g><g fill="#ffffff" fill-opacity="1"><g transform="translate(144.314581, 27.873883)"><g><path d="M 11.402344 -22.335938 C 5.058594 -22.335938 0 -17.277344 0 -10.992188 C 0 -4.648438 5.058594 0.410156 11.402344 0.410156 C 13.710938 0.410156 15.902344 -0.261719 17.773438 -1.519531 C 19.207031 -2.515625 20.699219 -2.105469 21.078125 -0.320312 L 21.339844 -0.320312 L 21.339844 -6.722656 C 21.339844 -8.242188 21.429688 -9.589844 21.839844 -10.671875 L 17.277344 -10.671875 C 17.746094 -9.589844 17.863281 -8.242188 17.863281 -6.722656 L 17.863281 -3.859375 C 16.019531 -1.433594 12.570312 -0.496094 9.734375 -1.460938 C 6.257812 -2.71875 3.480469 -6.316406 3.480469 -10.992188 C 3.480469 -17.074219 7.953125 -21.222656 12.660156 -20.988281 C 16.957031 -20.757812 20.140625 -17.511719 21.164062 -13.738281 L 21.546875 -13.738281 L 21.546875 -18.828125 C 20.929688 -18.796875 19.996094 -19.265625 19.324219 -19.761719 C 16.664062 -21.546875 14.558594 -22.335938 11.402344 -22.335938 Z M 11.402344 -22.335938 "/></g></g></g><g fill="#ffffff" fill-opacity="1"><g transform="translate(168.606971, 27.873883)"><g><path d="M 3.859375 0 C 3.421875 -1.109375 3.332031 -2.105469 3.332031 -3.566406 L 3.332031 -18.359375 C 3.332031 -19.820312 3.421875 -20.816406 3.859375 -21.925781 C 2.574219 -21.925781 1.285156 -21.925781 0 -21.925781 C 0.410156 -20.816406 0.527344 -19.820312 0.527344 -18.359375 L 0.527344 -3.800781 C 0.527344 -2.398438 0.554688 -1.257812 1.050781 0 Z M 3.859375 0 "/></g></g></g><g fill="#ffffff" fill-opacity="1"><g transform="translate(174.92124, 27.873883)"><g><path d="M 7.164062 -14.324219 C 3.214844 -14.324219 0 -11.109375 0 -7.164062 C 0 -3.214844 3.214844 0 7.164062 0 C 11.109375 0 14.324219 -3.214844 14.324219 -7.164062 C 14.324219 -11.109375 11.109375 -14.324219 7.164062 -14.324219 Z M 10.289062 -1.871094 C 8.214844 -0.644531 5.144531 -2.015625 3.421875 -4.96875 C 1.695312 -7.894531 1.957031 -11.253906 4.035156 -12.453125 C 6.109375 -13.679688 9.179688 -12.308594 10.90625 -9.382812 C 12.628906 -6.429688 12.367188 -3.070312 10.289062 -1.871094 Z M 10.289062 -1.871094 "/></g></g></g><g fill="#ffffff" fill-opacity="1"><g transform="translate(191.671588, 27.873883)"><g><path d="M 14.5 -7.191406 C 14.5 -10.671875 12.25 -14.324219 8.476562 -14.324219 C 6.371094 -14.324219 4.386719 -13.066406 3.332031 -10.90625 L 3.332031 -18.386719 C 3.332031 -19.878906 3.480469 -20.875 3.828125 -21.925781 C 2.542969 -21.925781 1.285156 -21.925781 0 -21.925781 C 0.4375 -20.875 0.496094 -19.878906 0.496094 -18.386719 L 0.496094 -3.597656 C 0.496094 -2.105469 0.4375 -1.109375 0 0 L 2.777344 0 C 3.273438 -1.226562 3.332031 -2.425781 3.332031 -3.769531 L 3.332031 -5.875 C 3.332031 -10.523438 5.699219 -12.832031 7.921875 -12.773438 C 9.851562 -12.773438 11.695312 -10.847656 11.695312 -7.191406 C 11.695312 -4.328125 10.582031 -0.992188 7.980469 -0.992188 C 6.199219 -0.992188 5.203125 -2.921875 4.941406 -3.976562 L 3.886719 -2.542969 C 5.027344 -0.730469 6.636719 0 8.242188 0 C 11.636719 0 14.5 -2.71875 14.5 -7.191406 Z M 14.5 -7.191406 "/></g></g></g><g fill="#ffffff" fill-opacity="1"><g transform="translate(208.655795, 27.873883)"><g><path d="M 13.039062 -3.566406 C 13.039062 -5.117188 13.039062 -8.417969 13.039062 -10.378906 C 13.039062 -13.914062 10.320312 -14.324219 7.453125 -14.324219 C 4.851562 -14.324219 1.929688 -13.914062 0 -13.476562 L 2.015625 -10.671875 C 3.683594 -12.042969 5.847656 -13.273438 8.070312 -13.300781 C 11.195312 -13.359375 10.789062 -9.472656 7.894531 -8.742188 C 6.8125 -8.476562 5.640625 -8.710938 4.503906 -8.742188 C 1.839844 -8.800781 0 -7.105469 0 -4.386719 C 0 -1.519531 2.046875 0 4.355469 0 C 6.78125 0 9.441406 -1.695312 10.230469 -5.144531 L 10.230469 -3.859375 C 10.230469 -2.425781 10.261719 -1.257812 10.757812 0 L 13.566406 0 C 13.15625 -1.109375 13.039062 -2.105469 13.039062 -3.566406 Z M 5.4375 -1.550781 C 2.191406 -1.460938 1.550781 -6.871094 5.90625 -7.484375 C 7.425781 -7.6875 9.472656 -7.746094 10.230469 -9.238281 C 9.96875 -6.605469 8.886719 -1.636719 5.4375 -1.550781 Z M 5.4375 -1.550781 "/></g></g></g><g fill="#ffffff" fill-opacity="1"><g transform="translate(224.675327, 27.873883)"><g><path d="M 3.859375 0 C 3.421875 -1.109375 3.332031 -2.105469 3.332031 -3.566406 L 3.332031 -18.359375 C 3.332031 -19.820312 3.421875 -20.816406 3.859375 -21.925781 C 2.574219 -21.925781 1.285156 -21.925781 0 -21.925781 C 0.410156 -20.816406 0.527344 -19.820312 0.527344 -18.359375 L 0.527344 -3.800781 C 0.527344 -2.398438 0.554688 -1.257812 1.050781 0 Z M 3.859375 0 "/></g></g></g><g fill="#ffffff" fill-opacity="1"><g transform="translate(92.492388, 68.755577)"><g/></g></g><g fill="#ffffff" fill-opacity="1"><g transform="translate(102.573442, 68.755577)"><g><path d="M 10.554688 -3.886719 C 10.554688 -9.5 10.554688 -15.144531 10.554688 -20.785156 L 13.59375 -20.785156 C 16.226562 -20.785156 17.21875 -19.207031 17.453125 -18.59375 L 17.714844 -18.59375 L 17.511719 -21.925781 L 0.203125 -21.925781 L 0 -18.59375 L 0.261719 -18.59375 C 0.496094 -19.207031 1.492188 -20.785156 4.09375 -20.785156 L 7.164062 -20.785156 C 7.164062 -15.144531 7.164062 -9.5 7.164062 -3.886719 C 7.164062 -2.398438 7.074219 -1.109375 6.636719 0 L 11.050781 0 C 10.640625 -1.109375 10.554688 -2.398438 10.554688 -3.886719 Z M 10.554688 -3.886719 "/></g></g></g><g fill="#ffffff" fill-opacity="1"><g transform="translate(122.744011, 68.755577)"><g><path d="M 6.082031 -2.367188 C 4.941406 -3.097656 5.933594 -4.152344 7.804688 -4.617188 C 8.769531 -4.882812 9.882812 -5.027344 10.847656 -5.351562 C 13.972656 -6.402344 14.382812 -9.792969 12.394531 -12.074219 C 11.167969 -13.476562 9.207031 -14.324219 7.164062 -14.324219 C 3.214844 -14.324219 0 -11.109375 0 -7.164062 C 0 -3.214844 3.214844 0 7.164062 0 C 9.96875 0 12.425781 -1.609375 13.59375 -3.976562 L 13.039062 -4.734375 C 11.925781 -2.164062 8.566406 -0.789062 6.082031 -2.367188 Z M 4.503906 -3.539062 C 4.09375 -3.945312 3.742188 -4.414062 3.421875 -4.96875 C 1.695312 -7.894531 1.957031 -11.253906 4.035156 -12.453125 C 4.792969 -12.890625 5.640625 -12.980469 6.460938 -12.863281 C 8.273438 -12.542969 10.144531 -11.109375 10.671875 -9.324219 C 11.019531 -8.128906 10.699219 -6.898438 9.324219 -6.316406 C 7.6875 -5.640625 5.378906 -5.320312 4.503906 -3.539062 Z M 4.503906 -3.539062 "/></g></g></g><g fill="#ffffff" fill-opacity="1"><g transform="translate(138.880466, 68.755577)"><g><path d="M 7.164062 -14.324219 C 3.214844 -14.324219 0 -11.109375 0 -7.164062 C 0 -3.214844 3.214844 0 7.164062 0 C 9.96875 0 12.425781 -1.609375 13.59375 -3.976562 L 13.039062 -4.734375 C 11.253906 -0.585938 5.847656 -0.820312 3.421875 -4.96875 C 1.695312 -7.894531 1.957031 -11.253906 4.035156 -12.453125 C 4.675781 -12.832031 5.410156 -12.980469 6.140625 -12.890625 C 8.507812 -12.628906 9.851562 -10.757812 10.789062 -8.769531 L 12.804688 -11.578125 C 11.488281 -13.273438 9.441406 -14.324219 7.164062 -14.324219 Z M 7.164062 -14.324219 "/></g></g></g><g fill="#ffffff" fill-opacity="1"><g transform="translate(154.899998, 68.755577)"><g><path d="M 0 0 L 2.804688 0 C 3.304688 -1.257812 3.332031 -2.398438 3.332031 -3.800781 L 3.332031 -10.789062 C 4.269531 -11.3125 5.640625 -12.015625 6.871094 -12.425781 C 9.035156 -13.125 10.757812 -12.890625 10.757812 -10.085938 L 10.757812 -3.566406 C 10.757812 -2.105469 10.640625 -1.109375 10.230469 0 C 11.519531 0 12.804688 0 14.089844 0 C 13.679688 -1.109375 13.566406 -2.105469 13.566406 -3.566406 C 13.566406 -5.671875 13.566406 -8.449219 13.566406 -10.671875 C 13.566406 -13.097656 12.25 -14.324219 9.851562 -14.324219 C 7.570312 -14.324219 5.175781 -13.039062 3.332031 -11.898438 L 3.332031 -18.359375 C 3.332031 -19.820312 3.421875 -20.816406 3.859375 -21.925781 C 2.574219 -21.925781 1.285156 -21.925781 0 -21.925781 C 0.410156 -20.816406 0.527344 -19.820312 0.527344 -18.359375 L 0.527344 -3.566406 C 0.527344 -2.105469 0.410156 -1.109375 0 0 Z M 0 0 "/></g></g></g><g fill="#ffffff" fill-opacity="1"><g transform="translate(171.533411, 68.755577)"><g><path d="M 0 -14.324219 C 0.410156 -13.242188 0.527344 -12.25 0.527344 -10.757812 L 0.527344 -3.566406 C 0.527344 -2.105469 0.410156 -1.109375 0 0 C 1.285156 0 2.574219 0 3.859375 0 C 3.421875 -1.109375 3.332031 -2.105469 3.332031 -3.566406 L 3.332031 -10.554688 C 3.332031 -10.613281 3.332031 -10.699219 3.332031 -10.789062 C 4.269531 -11.3125 5.640625 -12.015625 6.871094 -12.425781 C 9.035156 -13.125 10.757812 -12.890625 10.757812 -10.085938 L 10.757812 -3.566406 C 10.757812 -2.105469 10.640625 -1.109375 10.230469 0 C 11.519531 0 12.804688 0 14.089844 0 C 13.679688 -1.109375 13.566406 -2.105469 13.566406 -3.566406 C 13.566406 -5.671875 13.566406 -8.449219 13.566406 -10.671875 C 13.566406 -13.097656 12.25 -14.324219 9.851562 -14.324219 C 7.542969 -14.324219 5.144531 -13.007812 3.304688 -11.867188 C 3.273438 -12.71875 3.128906 -13.507812 2.804688 -14.324219 Z M 0 -14.324219 "/></g></g></g><g fill="#ffffff" fill-opacity="1"><g transform="translate(188.079128, 68.755577)"><g><path d="M 7.164062 -14.324219 C 3.214844 -14.324219 0 -11.109375 0 -7.164062 C 0 -3.214844 3.214844 0 7.164062 0 C 11.109375 0 14.324219 -3.214844 14.324219 -7.164062 C 14.324219 -11.109375 11.109375 -14.324219 7.164062 -14.324219 Z M 10.289062 -1.871094 C 8.214844 -0.644531 5.144531 -2.015625 3.421875 -4.96875 C 1.695312 -7.894531 1.957031 -11.253906 4.035156 -12.453125 C 6.109375 -13.679688 9.179688 -12.308594 10.90625 -9.382812 C 12.628906 -6.429688 12.367188 -3.070312 10.289062 -1.871094 Z M 10.289062 -1.871094 "/></g></g></g><g fill="#ffffff" fill-opacity="1"><g transform="translate(204.829476, 68.755577)"><g><path d="M 3.859375 0 C 3.421875 -1.109375 3.332031 -2.105469 3.332031 -3.566406 L 3.332031 -18.359375 C 3.332031 -19.820312 3.421875 -20.816406 3.859375 -21.925781 C 2.574219 -21.925781 1.285156 -21.925781 0 -21.925781 C 0.410156 -20.816406 0.527344 -19.820312 0.527344 -18.359375 L 0.527344 -3.800781 C 0.527344 -2.398438 0.554688 -1.257812 1.050781 0 Z M 3.859375 0 "/></g></g></g><g fill="#ffffff" fill-opacity="1"><g transform="translate(211.143745, 68.755577)"><g><path d="M 7.164062 -14.324219 C 3.214844 -14.324219 0 -11.109375 0 -7.164062 C 0 -3.214844 3.214844 0 7.164062 0 C 11.109375 0 14.324219 -3.214844 14.324219 -7.164062 C 14.324219 -11.109375 11.109375 -14.324219 7.164062 -14.324219 Z M 10.289062 -1.871094 C 8.214844 -0.644531 5.144531 -2.015625 3.421875 -4.96875 C 1.695312 -7.894531 1.957031 -11.253906 4.035156 -12.453125 C 6.109375 -13.679688 9.179688 -12.308594 10.90625 -9.382812 C 12.628906 -6.429688 12.367188 -3.070312 10.289062 -1.871094 Z M 10.289062 -1.871094 "/></g></g></g><g fill="#ffffff" fill-opacity="1"><g transform="translate(227.894093, 68.755577)"><g><path d="M 13.390625 0.320312 C 11.167969 0.644531 8.945312 1.695312 6.988281 2.222656 C 2.398438 3.421875 1.8125 1.109375 2.746094 -1.519531 C 3.976562 -0.585938 5.496094 0 7.164062 0 C 11.136719 0 14.324219 -3.214844 14.324219 -7.164062 C 14.324219 -10.144531 12.511719 -12.71875 9.941406 -13.796875 C 11.546875 -14.179688 13.066406 -15.054688 13.066406 -16.898438 L 10.230469 -16.898438 C 10.230469 -14.324219 8.332031 -14.324219 7.164062 -14.324219 C 3.214844 -14.324219 0 -11.136719 0 -7.164062 C 0 -5.496094 0.585938 -3.917969 1.578125 -2.71875 C -1.023438 1.550781 0.964844 5.523438 6.429688 3.566406 C 9.003906 2.632812 12.21875 0.933594 14.734375 1.492188 C 17.949219 2.191406 18.039062 6.226562 15.289062 7.570312 C 10.289062 10.085938 4.386719 4.589844 -0.496094 4.792969 C -2.894531 4.910156 -5.058594 6.023438 -6.050781 8.332031 L -3.886719 10.261719 C -2.457031 7.015625 0.117188 6.34375 2.953125 6.839844 C 6.285156 7.453125 9.648438 9.179688 13.097656 9.238281 C 15.992188 9.296875 20.171875 7.777344 20.140625 4.328125 C 20.082031 1.957031 17.714844 -0.292969 13.390625 0.320312 Z M 8.273438 -12.132812 C 9.265625 -11.519531 10.203125 -10.582031 10.933594 -9.382812 C 12.660156 -6.460938 12.367188 -3.097656 10.289062 -1.871094 C 8.449219 -0.789062 5.789062 -1.785156 4.035156 -4.0625 C 4.296875 -4.503906 4.589844 -4.910156 4.882812 -5.320312 C 6.578125 -7.453125 8.214844 -9.5 8.359375 -11.109375 C 8.390625 -11.488281 8.359375 -11.839844 8.273438 -12.132812 Z M 4.0625 -12.484375 C 4.707031 -12.863281 5.496094 -12.980469 6.285156 -12.863281 C 7.308594 -12.601562 7.394531 -11.429688 7.132812 -10.613281 C 6.695312 -9.324219 5.378906 -7.660156 4.003906 -5.933594 C 3.800781 -5.671875 3.566406 -5.410156 3.332031 -5.117188 C 1.726562 -8.011719 2.015625 -11.285156 4.0625 -12.484375 Z M 4.0625 -12.484375 "/></g></g></g><g fill="#ffffff" fill-opacity="1"><g transform="translate(244.761365, 68.755577)"><g><path d="M 3.332031 -3.566406 C 3.332031 -5.964844 3.332031 -8.359375 3.332031 -10.757812 C 3.332031 -12.25 3.421875 -13.242188 3.859375 -14.324219 C 2.574219 -14.324219 1.285156 -14.324219 0 -14.324219 C 0.410156 -13.242188 0.527344 -12.25 0.527344 -10.757812 C 0.527344 -8.359375 0.527344 -5.964844 0.527344 -3.566406 C 0.527344 -2.105469 0.410156 -1.109375 0 0 C 1.285156 0 2.574219 0 3.859375 0 C 3.421875 -1.109375 3.332031 -2.105469 3.332031 -3.566406 Z M 1.929688 -18.125 C 1.140625 -18.125 0.527344 -17.511719 0.527344 -16.722656 C 0.527344 -15.933594 1.140625 -15.320312 1.929688 -15.320312 C 2.691406 -15.320312 3.332031 -15.933594 3.332031 -16.722656 C 3.332031 -17.511719 2.691406 -18.125 1.929688 -18.125 Z M 1.929688 -18.125 "/></g></g></g><g fill="#ffffff" fill-opacity="1"><g transform="translate(251.075634, 68.755577)"><g><path d="M 6.082031 -2.367188 C 4.941406 -3.097656 5.933594 -4.152344 7.804688 -4.617188 C 8.769531 -4.882812 9.882812 -5.027344 10.847656 -5.351562 C 13.972656 -6.402344 14.382812 -9.792969 12.394531 -12.074219 C 11.167969 -13.476562 9.207031 -14.324219 7.164062 -14.324219 C 3.214844 -14.324219 0 -11.109375 0 -7.164062 C 0 -3.214844 3.214844 0 7.164062 0 C 9.96875 0 12.425781 -1.609375 13.59375 -3.976562 L 13.039062 -4.734375 C 11.925781 -2.164062 8.566406 -0.789062 6.082031 -2.367188 Z M 4.503906 -3.539062 C 4.09375 -3.945312 3.742188 -4.414062 3.421875 -4.96875 C 1.695312 -7.894531 1.957031 -11.253906 4.035156 -12.453125 C 4.792969 -12.890625 5.640625 -12.980469 6.460938 -12.863281 C 8.273438 -12.542969 10.144531 -11.109375 10.671875 -9.324219 C 11.019531 -8.128906 10.699219 -6.898438 9.324219 -6.316406 C 7.6875 -5.640625 5.378906 -5.320312 4.503906 -3.539062 Z M 4.503906 -3.539062 "/></g></g></g><g fill="#ffffff" fill-opacity="1"><g transform="translate(267.212089, 68.755577)"><g><path d="M 0 -10.496094 C 0.0585938 -7.164062 6.34375 -6.167969 9.5 -4.472656 C 11.34375 -3.480469 12.308594 -1.8125 9.5 -1.167969 C 8.652344 -0.964844 7.6875 -0.992188 7.046875 -1.109375 C 5.203125 -1.433594 3.449219 -2.484375 2.015625 -3.652344 L 0 -0.847656 C 1.929688 -0.410156 4.851562 0 7.453125 0 C 10.992188 0 13.097656 -1.726562 13.066406 -3.828125 C 13.007812 -7.425781 5.730469 -8.300781 2.863281 -10.261719 C 1.257812 -11.371094 1.460938 -12.6875 3.539062 -13.15625 C 4.386719 -13.359375 5.351562 -13.332031 6.023438 -13.214844 C 7.863281 -12.890625 9.617188 -11.839844 11.050781 -10.671875 L 13.066406 -13.476562 C 11.136719 -13.914062 8.1875 -14.324219 5.613281 -14.324219 C 2.074219 -14.324219 -0.0273438 -12.601562 0 -10.496094 Z M 0 -10.496094 "/></g></g></g></svg>